<?xml version="1.0" encoding="utf-8"?>
<svg viewBox="0 0 500 500" width="500" height="500" xmlns="http://www.w3.org/2000/svg">
  <path id="path0_fill" class="st0" d="M 172.619 487 C 215.279 487 249.901 452.378 249.901 409.718 L 249.901 332.436 L 172.619 332.436 C 129.959 332.436 95.337 367.058 95.337 409.718 C 95.337 452.378 129.959 487 172.619 487 Z" style="fill: rgb(10, 207, 131);"/>
  <path id="path1_fill" class="st1" d="M 95.337 255.154 C 95.337 212.494 129.959 177.872 172.619 177.872 L 249.901 177.872 L 249.901 332.436 L 172.619 332.436 C 129.959 332.436 95.337 297.814 95.337 255.154 Z" style="fill: rgb(162, 89, 255);"/>
  <path id="path1_fill_1_" class="st2" d="M 95.337 100.59 C 95.337 57.93 129.959 23.308 172.619 23.308 L 249.901 23.308 L 249.901 177.872 L 172.619 177.872 C 129.959 177.872 95.337 143.25 95.337 100.59 Z" style="fill: rgb(242, 78, 30);"/>
  <path id="path2_fill" class="st3" d="M 249.901 23.308 L 327.183 23.308 C 369.843 23.308 404.465 57.93 404.465 100.59 C 404.465 143.25 369.843 177.872 327.183 177.872 L 249.901 177.872 L 249.901 23.308 Z" style="fill: rgb(255, 114, 98);"/>
  <path id="path3_fill" class="st4" d="M 404.465 255.154 C 404.465 297.814 369.843 332.436 327.183 332.436 C 284.523 332.436 249.901 297.814 249.901 255.154 C 249.901 212.494 284.523 177.872 327.183 177.872 C 369.843 177.872 404.465 212.494 404.465 255.154 Z" style="fill: rgb(26, 188, 254);"/>
</svg>